<svg width="85" height="85" viewBox="0 0 85 85" fill="none" xmlns="http://www.w3.org/2000/svg">
<g clip-path="url(#clip0_101_406)">
<mask id="path-1-inside-1_101_406" fill="white">
<path d="M59.1098 24.5815L35.486 13.7634C35.486 13.7634 32.0466 10.7055 28.904 14.4471C27.607 15.9912 27.3253 17.7172 27.3253 17.7172L21.4105 54.4277C20.9383 57.8264 25.0756 58.9251 25.0756 58.9251L56.6491 66.8292L56.5252 65.2742C57.1858 64.0869 58.6597 62.0988 61.2297 61.8553C61.2871 61.8497 61.329 61.8114 61.3787 61.7858L62.3376 62.1003L59.1098 24.5815ZM36.9859 30.3701L38.0967 22.0276L55.7904 29.7417L56.1263 37.3049L36.9859 30.3701ZM57.5243 62.6009C57.2003 62.8919 56.9064 63.1936 56.6582 63.4993L36.0859 58.1264L56.1083 64.2605C56.0267 64.3867 55.9432 64.5124 55.8743 64.6308L29.3702 57.9008L55.4525 65.4348L55.4266 65.4889L25.9487 57.8857C25.9332 57.8837 24.5447 57.5879 23.5828 56.7799C22.6323 55.9816 22.4501 54.996 23.0231 53.7657C24.4948 50.604 29.6664 52.4552 29.7441 52.4837L59.4811 61.3673C59.0834 61.523 58.7296 61.7241 58.3944 61.9396L39.0745 56.8277L57.5243 62.6009Z"/>
</mask>
<path d="M59.1098 24.5815L35.486 13.7634C35.486 13.7634 32.0466 10.7055 28.904 14.4471C27.607 15.9912 27.3253 17.7172 27.3253 17.7172L21.4105 54.4277C20.9383 57.8264 25.0756 58.9251 25.0756 58.9251L56.6491 66.8292L56.5252 65.2742C57.1858 64.0869 58.6597 62.0988 61.2297 61.8553C61.2871 61.8497 61.329 61.8114 61.3787 61.7858L62.3376 62.1003L59.1098 24.5815ZM36.9859 30.3701L38.0967 22.0276L55.7904 29.7417L56.1263 37.3049L36.9859 30.3701ZM57.5243 62.6009C57.2003 62.8919 56.9064 63.1936 56.6582 63.4993L36.0859 58.1264L56.1083 64.2605C56.0267 64.3867 55.9432 64.5124 55.8743 64.6308L29.3702 57.9008L55.4525 65.4348L55.4266 65.4889L25.9487 57.8857C25.9332 57.8837 24.5447 57.5879 23.5828 56.7799C22.6323 55.9816 22.4501 54.996 23.0231 53.7657C24.4948 50.604 29.6664 52.4552 29.7441 52.4837L59.4811 61.3673C59.0834 61.523 58.7296 61.7241 58.3944 61.9396L39.0745 56.8277L57.5243 62.6009Z" fill="#9DA2C8"/>
<path d="M59.1098 24.5815L60.1061 24.4957L60.0561 23.915L59.5261 23.6723L59.1098 24.5815ZM35.486 13.7634L34.8216 14.5107L34.9335 14.6102L35.0696 14.6726L35.486 13.7634ZM27.3253 17.7172L26.3383 17.5561L26.338 17.5581L27.3253 17.7172ZM21.4105 54.4277L20.4232 54.2686L20.4215 54.2793L20.42 54.2901L21.4105 54.4277ZM25.0756 58.9251L24.8189 59.8916L24.8258 59.8935L24.8327 59.8952L25.0756 58.9251ZM56.6491 66.8292L56.4063 67.7992L57.7566 68.1373L57.646 66.7497L56.6491 66.8292ZM56.5252 65.2742L55.6513 64.7881L55.5043 65.0523L55.5283 65.3537L56.5252 65.2742ZM61.2297 61.8553L61.324 62.8509L61.3278 62.8505L61.2297 61.8553ZM61.3787 61.7858L61.6903 60.8356L61.2925 60.7051L60.9204 60.897L61.3787 61.7858ZM62.3376 62.1003L62.026 63.0505L63.4636 63.522L63.3339 62.0146L62.3376 62.1003ZM38.0967 22.0276L38.4963 21.111L37.2805 20.5809L37.1054 21.8956L38.0967 22.0276ZM55.7904 29.7417L56.7894 29.6974L56.7618 29.0743L56.1901 28.8251L55.7904 29.7417ZM56.1263 37.3049L55.7856 38.2451L57.1916 38.7545L57.1253 37.2605L56.1263 37.3049ZM56.6582 63.4993L56.4055 64.4669L57.0286 64.6296L57.4346 64.1296L56.6582 63.4993ZM36.0859 58.1264L36.3386 57.1588L35.793 59.0825L36.0859 58.1264ZM56.1083 64.2605L56.9483 64.8031L57.666 63.6918L56.4012 63.3043L56.1083 64.2605ZM55.8743 64.6308L55.6282 65.6001L56.3595 65.7858L56.7388 65.1336L55.8743 64.6308ZM29.3702 57.9008L29.6163 56.9315L29.0927 58.8615L29.3702 57.9008ZM55.4525 65.4348L56.3546 65.8662L56.8638 64.8015L55.73 64.474L55.4525 65.4348ZM55.4266 65.4889L55.1768 66.4572L55.9737 66.6628L56.3287 65.9204L55.4266 65.4889ZM25.9487 57.8857L26.1984 56.9173L26.1378 56.9017L26.0756 56.8937L25.9487 57.8857ZM23.0231 53.7657L23.9296 54.1879L23.9297 54.1877L23.0231 53.7657ZM29.7441 52.4837L29.3995 53.4224L29.4284 53.433L29.4578 53.4418L29.7441 52.4837ZM59.4811 61.3673L59.8457 62.2985L62.5489 61.2401L59.7673 60.4091L59.4811 61.3673ZM58.3944 61.9396L58.1386 62.9063L58.5644 63.019L58.935 62.7808L58.3944 61.9396ZM39.0745 56.8277L39.3303 55.8609L38.7758 57.782L39.0745 56.8277ZM59.5261 23.6723L35.9024 12.8542L35.0696 14.6726L58.6934 25.4907L59.5261 23.6723ZM35.486 13.7634C36.1504 13.016 36.15 13.0157 36.1496 13.0153C36.1495 13.0152 36.149 13.0148 36.1487 13.0145C36.1481 13.0139 36.1474 13.0133 36.1467 13.0127C36.1452 13.0114 36.1435 13.0099 36.1416 13.0082C36.1378 13.0049 36.1331 13.0008 36.1276 12.9961C36.1165 12.9866 36.102 12.9743 36.0842 12.9595C36.0486 12.9301 35.9995 12.8906 35.938 12.8437C35.8152 12.7502 35.641 12.6259 35.4229 12.4919C34.9907 12.2265 34.3631 11.9089 33.604 11.7291C32.8387 11.5478 31.9274 11.5042 30.9592 11.8075C29.9877 12.1119 29.0285 12.7439 28.1382 13.8039L29.6697 15.0902C30.3507 14.2794 31 13.8906 31.5572 13.716C32.1178 13.5404 32.6556 13.5597 33.143 13.6752C33.6365 13.7921 34.0652 14.0052 34.3761 14.1961C34.5295 14.2903 34.6486 14.3757 34.7262 14.4348C34.7648 14.4642 34.7927 14.4868 34.809 14.5003C34.8172 14.5071 34.8224 14.5115 34.8245 14.5133C34.8256 14.5142 34.8259 14.5145 34.8254 14.5141C34.8251 14.5139 34.8247 14.5135 34.8241 14.5129C34.8237 14.5126 34.8234 14.5123 34.823 14.5119C34.8228 14.5118 34.8224 14.5114 34.8223 14.5114C34.8219 14.511 34.8216 14.5107 35.486 13.7634ZM28.1382 13.8039C27.3968 14.6866 26.9515 15.613 26.6911 16.3122C26.5602 16.6637 26.474 16.9634 26.4196 17.1799C26.3924 17.2883 26.3731 17.3764 26.3601 17.4402C26.3535 17.4722 26.3486 17.4981 26.345 17.5176C26.3433 17.5273 26.3418 17.5354 26.3407 17.5418C26.3402 17.5451 26.3397 17.5479 26.3393 17.5502C26.3391 17.5514 26.3389 17.5525 26.3387 17.5535C26.3387 17.554 26.3386 17.5544 26.3385 17.5549C26.3385 17.5551 26.3384 17.5554 26.3384 17.5555C26.3384 17.5558 26.3383 17.5561 27.3253 17.7172C28.3122 17.8783 28.3122 17.8785 28.3121 17.8788C28.3121 17.8789 28.3121 17.8792 28.312 17.8793C28.312 17.8796 28.3119 17.8799 28.3119 17.8802C28.3118 17.8808 28.3117 17.8812 28.3116 17.8816C28.3115 17.8823 28.3115 17.8826 28.3115 17.8825C28.3115 17.8823 28.3118 17.8805 28.3124 17.8772C28.3136 17.8707 28.316 17.858 28.3197 17.8397C28.3272 17.8032 28.34 17.7444 28.3594 17.6668C28.3985 17.5114 28.4637 17.2832 28.5654 17.0101C28.7701 16.4603 29.1141 15.7517 29.6697 15.0902L28.1382 13.8039ZM26.338 17.5581L20.4232 54.2686L22.3978 54.5867L28.3125 17.8762L26.338 17.5581ZM20.42 54.2901C20.1131 56.4987 21.3431 57.9458 22.4831 58.7635C23.0523 59.1718 23.629 59.45 24.0569 59.6255C24.2728 59.7141 24.4559 59.7786 24.588 59.8218C24.6542 59.8434 24.708 59.8598 24.7471 59.8713C24.7667 59.8771 24.7827 59.8816 24.7947 59.885C24.8007 59.8867 24.8058 59.8881 24.8098 59.8892C24.8119 59.8897 24.8136 59.8902 24.8151 59.8906C24.8159 59.8908 24.8166 59.891 24.8172 59.8912C24.8175 59.8913 24.818 59.8914 24.8181 59.8914C24.8185 59.8915 24.8189 59.8916 25.0756 58.9251C25.3322 57.9586 25.3326 57.9587 25.3329 57.9588C25.333 57.9588 25.3334 57.9589 25.3336 57.959C25.3339 57.9591 25.3343 57.9592 25.3345 57.9592C25.335 57.9594 25.3353 57.9594 25.3353 57.9595C25.3354 57.9595 25.3345 57.9592 25.3327 57.9587C25.3292 57.9577 25.322 57.9557 25.3113 57.9526C25.2901 57.9463 25.2555 57.9358 25.2094 57.9208C25.1172 57.8906 24.9807 57.8427 24.8161 57.7752C24.483 57.6385 24.0549 57.4296 23.6488 57.1383C22.8382 56.557 22.2356 55.7554 22.401 54.5653L20.42 54.2901ZM24.8327 59.8952L56.4063 67.7992L56.892 65.8591L25.3184 57.9551L24.8327 59.8952ZM57.646 66.7497L57.522 65.1948L55.5283 65.3537L55.6523 66.9086L57.646 66.7497ZM57.399 65.7604C58.0155 64.6525 59.2635 63.0461 61.324 62.8509L61.1353 60.8598C58.056 61.1516 56.3561 63.5213 55.6513 64.7881L57.399 65.7604ZM61.3278 62.8505C61.5566 62.8279 61.723 62.7416 61.7986 62.6989C61.8181 62.6879 61.8345 62.678 61.8454 62.6714C61.8509 62.6681 61.8558 62.665 61.8592 62.6629C61.8635 62.6602 61.8647 62.6595 61.867 62.6581C61.8762 62.6524 61.8607 62.6624 61.837 62.6746L60.9204 60.897C60.8718 60.922 60.8324 60.9464 60.818 60.9552C60.7944 60.9698 60.8059 60.9626 60.8155 60.9572C60.8434 60.9414 60.9601 60.877 61.1316 60.8601L61.3278 62.8505ZM61.067 62.736L62.026 63.0505L62.6492 61.1501L61.6903 60.8356L61.067 62.736ZM63.3339 62.0146L60.1061 24.4957L58.1135 24.6672L61.3413 62.186L63.3339 62.0146ZM37.9771 30.5021L39.0879 22.1596L37.1054 21.8956L35.9946 30.2381L37.9771 30.5021ZM37.697 22.9443L55.3908 30.6584L56.1901 28.8251L38.4963 21.111L37.697 22.9443ZM54.7914 29.7861L55.1273 37.3493L57.1253 37.2605L56.7894 29.6974L54.7914 29.7861ZM56.4669 36.3647L37.3265 29.4299L36.6452 31.3103L55.7856 38.2451L56.4669 36.3647ZM56.8561 61.8569C56.5013 62.1755 56.1694 62.5149 55.8819 62.869L57.4346 64.1296C57.6435 63.8723 57.8992 63.6082 58.1925 63.3448L56.8561 61.8569ZM56.9109 62.5318L36.3386 57.1588L35.8332 59.0939L56.4055 64.4669L56.9109 62.5318ZM35.793 59.0825L55.8153 65.2166L56.4012 63.3043L36.3789 57.1702L35.793 59.0825ZM55.2682 63.7179C55.1979 63.8268 55.0942 63.9832 55.0099 64.1281L56.7388 65.1336C56.7922 65.0416 56.8556 64.9465 56.9483 64.8031L55.2682 63.7179ZM56.1204 63.6616L29.6163 56.9315L29.1241 58.87L55.6282 65.6001L56.1204 63.6616ZM29.0927 58.8615L55.175 66.3955L55.73 64.474L29.6477 56.94L29.0927 58.8615ZM54.5504 65.0033L54.5245 65.0575L56.3287 65.9204L56.3546 65.8662L54.5504 65.0033ZM55.6764 64.5206L26.1984 56.9173L25.6989 58.854L55.1768 66.4572L55.6764 64.5206ZM26.0756 56.8937C26.1404 56.902 26.1822 56.9142 26.114 56.898C26.0834 56.8907 26.0355 56.8787 25.9735 56.8616C25.8492 56.8274 25.6727 56.7737 25.4704 56.6982C25.053 56.5424 24.5838 56.3148 24.2259 56.0142L22.9396 57.5457C23.5437 58.053 24.2497 58.3773 24.7709 58.5719C25.0379 58.6715 25.2716 58.7427 25.442 58.7897C25.5274 58.8133 25.598 58.831 25.6501 58.8434C25.6645 58.8469 25.7531 58.8688 25.8217 58.8776L26.0756 56.8937ZM24.2259 56.0142C23.8863 55.729 23.7563 55.4759 23.7149 55.2524C23.6712 55.0171 23.7011 54.6785 23.9296 54.1879L22.1166 53.3435C21.7721 54.0832 21.6066 54.8526 21.7484 55.6172C21.8924 56.3937 22.3287 57.0325 22.9396 57.5457L24.2259 56.0142ZM23.9297 54.1877C24.3933 53.1917 25.4692 52.8608 26.8585 52.9272C27.5166 52.9587 28.1489 53.0797 28.6283 53.1982C29.106 53.3162 29.4086 53.4258 29.3995 53.4224L30.0887 51.5449C30.0156 51.5181 28.5913 51.0079 26.9541 50.9295C25.3704 50.8537 23.1246 51.178 22.1165 53.3437L23.9297 54.1877ZM29.4578 53.4418L59.1949 62.3255L59.7673 60.4091L30.0303 51.5255L29.4578 53.4418ZM59.1165 60.4361C58.6344 60.6249 58.219 60.8636 57.8537 61.0984L58.935 62.7808C59.2402 62.5847 59.5325 62.4211 59.8457 62.2985L59.1165 60.4361ZM58.6501 60.9729L39.3303 55.8609L38.8187 57.7944L58.1386 62.9063L58.6501 60.9729ZM38.7758 57.782L57.2257 63.5552L57.8229 61.6465L39.3731 55.8733L38.7758 57.782Z" fill="#6668AA" mask="url(#path-1-inside-1_101_406)"/>
</g>
<defs>
<clipPath id="clip0_101_406">
<rect width="60" height="60" fill="white" transform="translate(38.59) rotate(40.0283)"/>
</clipPath>
</defs>
</svg>
