<svg width="36" height="36" viewBox="0 0 36 36" fill="none" xmlns="http://www.w3.org/2000/svg">
<path d="M29.5632 26.25H6.43703C6.08371 26.25 5.75363 26.0705 5.55469 25.7703C2.50344 21.1689 2.26937 12.3176 2.25166 11.0036C2.25055 10.9521 2.25 10.9001 2.25 10.8483C2.25 10.2425 2.727 9.75114 3.31606 9.75H3.31827C3.90622 9.75 4.38405 10.2391 4.38626 10.844C4.38626 10.8514 4.38654 10.9163 4.38903 11.0312C4.4831 14.1562 6.98459 16.6683 10.0458 16.6683C13.1665 16.6683 15.7053 14.0575 15.7053 10.8483C15.7053 10.2417 16.1837 9.75 16.7733 9.75H19.2267C19.8166 9.75 20.2947 10.2417 20.2947 10.8483C20.2947 14.0575 22.8338 16.6683 25.9545 16.6683C29.0185 16.6683 31.5216 14.1516 31.6115 11.0227C31.6135 10.9129 31.614 10.8514 31.614 10.8443C31.6162 10.2391 32.0938 9.75 32.682 9.75H32.6839C33.273 9.75114 33.75 10.2425 33.75 10.8483C33.75 10.9003 33.7494 10.9521 33.7486 11.0039C33.7306 12.3176 33.4966 21.1692 30.4456 25.7706C30.2466 26.0705 29.9163 26.25 29.5632 26.25Z" fill="#F79C6E"/>
<path d="M32.6837 9.75C32.6831 9.75 32.6826 9.75 32.6817 9.75C32.0938 9.75 31.6159 10.2391 31.6137 10.844C31.6137 10.8514 31.6134 10.9129 31.6112 11.0227C31.5213 14.1514 29.0181 16.6684 25.9541 16.6684C22.8334 16.6684 20.2945 14.0575 20.2945 10.8483C20.2945 10.2417 19.8162 9.75 19.2265 9.75H18V26.25H29.5629C29.9163 26.25 30.2463 26.0705 30.4453 25.7706C33.4966 21.1691 33.7306 12.3173 33.7483 11.0036C33.7494 10.9521 33.75 10.9001 33.75 10.8483C33.7497 10.2425 33.2727 9.75114 32.6837 9.75Z" fill="#F6844B"/>
<path d="M18 6C15.9323 6 14.25 7.68234 14.25 9.75015C14.25 11.818 15.9323 13.5 18 13.5C20.0677 13.5 21.75 11.818 21.75 9.75015C21.75 7.68234 20.0677 6 18 6Z" fill="#F6844B"/>
<path d="M18 6V13.5C20.0679 13.4997 21.75 11.8177 21.75 9.75C21.75 7.68227 20.0676 6.0003 18 6Z" fill="#F47434"/>
<path d="M3.37514 8.25C1.5141 8.25 0 9.93227 0 12C0 14.0677 1.5141 15.75 3.37514 15.75C5.23617 15.75 6.75 14.0677 6.75 12C6.75 9.93227 5.23617 8.25 3.37514 8.25Z" fill="#F6844B"/>
<path d="M32.6249 8.25C30.7638 8.25 29.25 9.93234 29.25 12.0002C29.25 14.0677 30.7638 15.75 32.6249 15.75C34.4859 15.75 36 14.0677 36 12.0002C36 9.93234 34.4859 8.25 32.6249 8.25Z" fill="#F47434"/>
<path d="M29.672 30H6.32805C5.73261 30 5.25 29.4941 5.25 28.87V25.5H30.75V28.87C30.75 29.4941 30.2674 30 29.672 30Z" fill="#F6844B"/>
<path d="M18 30H29.6719C30.2674 30 30.75 29.4941 30.75 28.87V25.5H18V30Z" fill="#F47434"/>
</svg>
