<svg width="24" height="24" viewBox="0 0 24 24" fill="none" xmlns="http://www.w3.org/2000/svg">
<path d="M15.6 7.19997C15.6 8.15475 15.2207 9.07043 14.5456 9.74556C13.8704 10.4207 12.9547 10.8 12 10.8C11.0452 10.8 10.1295 10.4207 9.45438 9.74556C8.77925 9.07043 8.39997 8.15475 8.39997 7.19997C8.39997 6.2452 8.77925 5.32952 9.45438 4.65439C10.1295 3.97926 11.0452 3.59998 12 3.59998C12.9547 3.59998 13.8704 3.97926 14.5456 4.65439C15.2207 5.32952 15.6 6.2452 15.6 7.19997Z" fill="url(#paint0_linear_101_16)"/>
<path d="M21.6001 9.59995C21.6001 10.2365 21.3472 10.8469 20.8971 11.297C20.447 11.7471 19.8366 12 19.2001 12C18.5636 12 17.9531 11.7471 17.503 11.297C17.0529 10.8469 16.8001 10.2365 16.8001 9.59995C16.8001 8.96343 17.0529 8.35298 17.503 7.90289C17.9531 7.45281 18.5636 7.19995 19.2001 7.19995C19.8366 7.19995 20.447 7.45281 20.8971 7.90289C21.3472 8.35298 21.6001 8.96343 21.6001 9.59995Z" fill="url(#paint1_linear_101_16)"/>
<path d="M16.8 17.9999C16.8 16.7269 16.2943 15.506 15.3941 14.6058C14.4939 13.7057 13.273 13.2 12 13.2C10.7269 13.2 9.50604 13.7057 8.60587 14.6058C7.70569 15.506 7.19998 16.7269 7.19998 17.9999V21.5999H16.8V17.9999Z" fill="url(#paint2_linear_101_16)"/>
<path d="M7.19997 9.59995C7.19997 10.2365 6.94711 10.8469 6.49702 11.297C6.04694 11.7471 5.43649 12 4.79997 12C4.16345 12 3.553 11.7471 3.10291 11.297C2.65282 10.8469 2.39997 10.2365 2.39997 9.59995C2.39997 8.96343 2.65282 8.35298 3.10291 7.90289C3.553 7.45281 4.16345 7.19995 4.79997 7.19995C5.43649 7.19995 6.04694 7.45281 6.49702 7.90289C6.94711 8.35298 7.19997 8.96343 7.19997 9.59995Z" fill="url(#paint3_linear_101_16)"/>
<path d="M19.2001 21.5999V17.9999C19.2018 16.7799 18.892 15.5796 18.3001 14.5127C18.8321 14.3766 19.3882 14.3637 19.9259 14.4752C20.4637 14.5866 20.9688 14.8194 21.4029 15.1558C21.837 15.4922 22.1885 15.9233 22.4306 16.4162C22.6728 16.9091 22.7991 17.4508 22.8001 17.9999V21.5999H19.2001Z" fill="url(#paint4_linear_101_16)"/>
<path d="M5.69998 14.5128C5.10808 15.5796 4.7983 16.7799 4.79998 18V21.6H1.19998V18C1.19975 17.4504 1.32534 16.9081 1.56712 16.4146C1.8089 15.9211 2.16045 15.4895 2.59484 15.1529C3.02923 14.8162 3.53492 14.5835 4.07315 14.4726C4.61139 14.3616 5.16788 14.3754 5.69998 14.5128Z" fill="url(#paint5_linear_101_16)"/>
<defs>
<linearGradient id="paint0_linear_101_16" x1="12" y1="3.59998" x2="12" y2="10.8" gradientUnits="userSpaceOnUse">
<stop stop-color="#EF777B"/>
<stop offset="1" stop-color="#F08F92"/>
</linearGradient>
<linearGradient id="paint1_linear_101_16" x1="19.2001" y1="7.19995" x2="19.2001" y2="12" gradientUnits="userSpaceOnUse">
<stop stop-color="#EF777B"/>
<stop offset="1" stop-color="#F08F92"/>
</linearGradient>
<linearGradient id="paint2_linear_101_16" x1="12" y1="13.2" x2="12" y2="21.5999" gradientUnits="userSpaceOnUse">
<stop stop-color="#EF777B"/>
<stop offset="1" stop-color="#F08F92"/>
</linearGradient>
<linearGradient id="paint3_linear_101_16" x1="4.79997" y1="7.19995" x2="4.79997" y2="12" gradientUnits="userSpaceOnUse">
<stop stop-color="#EF777B"/>
<stop offset="1" stop-color="#F08F92"/>
</linearGradient>
<linearGradient id="paint4_linear_101_16" x1="20.5501" y1="14.4001" x2="20.5501" y2="21.5999" gradientUnits="userSpaceOnUse">
<stop stop-color="#EF777B"/>
<stop offset="1" stop-color="#F08F92"/>
</linearGradient>
<linearGradient id="paint5_linear_101_16" x1="3.44998" y1="14.3984" x2="3.44998" y2="21.6" gradientUnits="userSpaceOnUse">
<stop stop-color="#EF777B"/>
<stop offset="1" stop-color="#F08F92"/>
</linearGradient>
</defs>
</svg>
