<svg width="46" height="46" viewBox="0 0 46 46" fill="none" xmlns="http://www.w3.org/2000/svg">
<g clip-path="url(#clip0_101_156)">
<path d="M7.51657 27.3155C7.35901 27.158 7.26163 26.9405 7.26179 26.7003L7.26176 22.7972C7.26176 22.3167 7.65127 21.9271 8.13178 21.9272C8.61228 21.9272 9.0018 22.3167 9.0018 22.7972L9.00183 26.7003C9.00183 27.1808 8.61232 27.5703 8.13181 27.5703C7.8914 27.5703 7.67397 27.4729 7.51657 27.3155Z" fill="#3BA7F5"/>
<path d="M11.7592 27.3156C11.6018 27.1581 11.4976 26.9472 11.4844 26.7203L11.2675 23.0341C11.2408 22.5802 11.587 22.234 12.0408 22.2607C12.4946 22.2874 12.8842 22.6769 12.9109 23.1307L13.1277 26.817C13.1544 27.2708 12.8082 27.6171 12.3544 27.5904C12.1275 27.5772 11.9166 27.473 11.7592 27.3156Z" fill="#3BA7F5"/>
<path d="M13.226 22.7668C13.226 22.3022 12.8493 21.9256 12.3848 21.9257L8.12143 21.9256C7.89822 21.9256 7.68428 22.0142 7.52653 22.1719C7.36878 22.3297 7.28003 22.5438 7.28019 22.7668L7.28012 25.6649L13.2262 25.6646L13.226 22.7668Z" fill="#259DF4"/>
<path d="M37.0736 23.7371C37.0674 22.9698 36.8885 22.2145 36.5531 21.5263C36.8769 20.8444 37.0431 20.0921 37.0365 19.3239C37.0132 16.5186 34.7115 14.2172 31.9067 14.1938C29.8226 14.1761 27.7246 15.2371 25.6708 17.3479C25.0244 18.0123 24.4893 18.674 24.1033 19.189L9.44136 19.0663C8.21089 19.056 7.21835 20.0485 7.22863 21.279L7.24038 22.6864C7.2422 22.9051 7.24726 23.5107 7.24726 23.5107L24.1372 23.6517C24.5337 24.176 25.0818 24.8492 25.7392 25.5243C27.8293 27.6668 29.9446 28.765 32.0286 28.7824C34.8339 28.8057 37.0972 26.5424 37.0736 23.7371ZM31.5501 21.4836C31.5551 22.153 31.8571 22.784 32.3776 23.2136C32.5244 23.3349 32.6095 23.5124 32.6112 23.6995C32.6139 24.0445 32.3359 24.3225 31.9912 24.3198C30.7921 24.3096 29.1971 22.8647 28.0398 21.4554C29.1733 20.0651 30.7437 18.6465 31.9441 18.6567C32.1103 18.6579 32.2675 18.7243 32.3868 18.8435C32.5062 18.9629 32.5725 19.1202 32.5738 19.2876C32.5756 19.4748 32.4939 19.6499 32.3493 19.7683C31.8359 20.1892 31.5447 20.8147 31.5501 21.4836Z" fill="#1B99F3"/>
<path d="M32.3566 23.337C32.5015 23.4565 32.585 23.6319 32.5859 23.8171C32.5874 24.1585 32.3107 24.4352 31.9696 24.4338C30.7821 24.4288 29.2089 23.0047 28.0688 21.6141L7.46296 21.5283L7.46873 22.9195C7.46963 23.136 7.47212 23.7356 7.47212 23.7356L24.1955 23.805C24.5859 24.3225 25.1258 24.9868 25.7739 25.6525C27.8345 27.7653 29.9245 28.8439 31.988 28.8525C34.7658 28.864 37.0162 26.6136 37.0045 23.8359C37.0012 23.0763 36.8275 22.3291 36.4981 21.6489L31.5445 21.6283C31.5471 22.291 31.8434 22.9141 32.3566 23.337Z" fill="#3BA7F5"/>
</g>
<defs>
<clipPath id="clip0_101_156">
<rect width="32" height="32" fill="white" transform="translate(22.6274) rotate(45)"/>
</clipPath>
</defs>
</svg>
