<svg width="36" height="36" viewBox="0 0 36 36" fill="none" xmlns="http://www.w3.org/2000/svg">
<path d="M30.3409 18.7004C32.7414 16.663 33.9417 15.6442 33.6238 14.6839C33.3059 13.7235 31.7349 13.6221 28.5928 13.4194L24.8135 13.1755C23.8941 13.1162 23.4344 13.0865 23.083 12.8315C22.7317 12.5764 22.5611 12.1485 22.2199 11.2927L20.7727 7.66206C19.5927 4.70216 19.0028 3.22221 17.9859 3.2222C16.9691 3.2222 16.3791 4.70215 15.1992 7.66205L13.7518 11.2929C13.4106 12.1486 13.2401 12.5765 12.8888 12.8315C12.5375 13.0866 12.0779 13.1163 11.1586 13.1758L7.39093 13.4194C4.25483 13.6222 2.68677 13.7236 2.36854 14.683C2.0503 15.6424 3.24689 16.6608 5.64008 18.6977L8.5877 21.2065C9.28061 21.7962 9.62706 22.0911 9.75725 22.5003C9.88743 22.9095 9.77506 23.3503 9.55031 24.232L8.58541 28.0174C7.79661 31.1119 7.40221 32.6592 8.22579 33.2572C9.04937 33.8552 10.3986 33.0013 13.0969 31.2933L16.3815 29.2144C17.1612 28.7208 17.5511 28.474 17.9859 28.474C18.4208 28.474 18.8106 28.7208 19.5904 29.2144L22.8749 31.2933C25.5732 33.0012 26.9224 33.8552 27.746 33.2572C28.5696 32.6592 28.1752 31.1119 27.3864 28.0174L26.4222 24.2348C26.1971 23.3518 26.0846 22.9103 26.2152 22.5007C26.3459 22.0911 26.6932 21.7962 27.388 21.2066L30.3409 18.7004Z" fill="#3BF5BD"/>
<path d="M27.388 21.2066C26.6932 21.7962 26.3458 22.0911 26.2152 22.5007C26.0846 22.9103 26.1971 23.3518 26.4222 24.2348L27.3864 28.0174C28.1752 31.1119 28.5696 32.6592 27.746 33.2572C26.9224 33.8552 25.5732 33.0012 22.8748 31.2933L19.3814 29.0821C18.699 28.6502 18.3578 28.4342 18.1719 28.0964C17.9859 27.7586 17.9859 27.3548 17.9859 26.5472V12.5591C17.9859 9.46658 17.9859 7.92034 18.3583 7.49583C18.8108 6.98002 19.5557 6.83703 20.167 7.14861C20.6702 7.40503 21.2427 8.84136 22.3879 11.714C22.5647 12.1575 22.6531 12.3792 22.7915 12.5528C22.9606 12.7649 23.1842 12.9272 23.4383 13.0224C23.6462 13.1002 23.8844 13.1156 24.3608 13.1463L28.5927 13.4194C31.7348 13.6221 33.3059 13.7235 33.6238 14.6839C33.9417 15.6442 32.7414 16.663 30.3408 18.7004L27.388 21.2066Z" fill="#0CF3AD"/>
</svg>
